<svg xmlns="http://www.w3.org/2000/svg" viewBox="0 0 32 32">
  <rect width="32" height="32" rx="8" fill="#f4efe4"/>
  <g stroke="#f8b13a" stroke-width="2.4" stroke-linecap="round">
    <line x1="27" y1="16" x2="30.5" y2="16"/>
    <line x1="23.8" y1="23.8" x2="26.2" y2="26.2"/>
    <line x1="16" y1="27" x2="16" y2="30.5"/>
    <line x1="8.2" y1="23.8" x2="5.8" y2="26.2"/>
    <line x1="5" y1="16" x2="1.5" y2="16"/>
    <line x1="8.2" y1="8.2" x2="5.8" y2="5.8"/>
    <line x1="16" y1="5" x2="16" y2="1.5"/>
    <line x1="23.8" y1="8.2" x2="26.2" y2="5.8"/>
  </g>
  <circle cx="16" cy="16" r="9.4" fill="#ffd64d" stroke="#2c2622" stroke-width="1.8"/>
  <path d="M11.4 14.6 q1.7 1.5 3.4 0" fill="none" stroke="#2c2622" stroke-width="1.7" stroke-linecap="round"/>
  <path d="M17.2 14.6 q1.7 1.5 3.4 0" fill="none" stroke="#2c2622" stroke-width="1.7" stroke-linecap="round"/>
  <path d="M12.4 17.8 Q16 21.4 19.6 17.8" fill="none" stroke="#2c2622" stroke-width="1.8" stroke-linecap="round"/>
  <ellipse cx="11" cy="18.4" rx="1.5" ry="1" fill="#ff7d4f" opacity="0.55"/>
  <ellipse cx="21" cy="18.4" rx="1.5" ry="1" fill="#ff7d4f" opacity="0.55"/>
</svg>
